<svg xmlns="http://www.w3.org/2000/svg" viewBox="0 0 512 512"><rect width="512" height="512" rx="112" fill="#4f8c1b"/><polygon points="360.4,299.2 256.0,359.4 256.0,409.6 360.4,349.4" fill="#b98f51" stroke="#8a6a39" stroke-width="1.2" stroke-linejoin="round"/><polygon points="151.6,299.2 256.0,359.4 256.0,409.6 151.6,349.4" fill="#d2ac6a" stroke="#8a6a39" stroke-width="1.2" stroke-linejoin="round"/><polygon points="256.0,238.9 360.4,299.2 256.0,359.4 151.6,299.2" fill="#e9cb8b" stroke="#8a6a39" stroke-width="1.2" stroke-linejoin="round"/><polygon points="360.4,230.9 256.0,291.1 256.0,341.3 360.4,281.1" fill="#b98f51" stroke="#8a6a39" stroke-width="1.2" stroke-linejoin="round"/><polygon points="151.6,230.9 256.0,291.1 256.0,341.3 151.6,281.1" fill="#d2ac6a" stroke="#8a6a39" stroke-width="1.2" stroke-linejoin="round"/><polygon points="256.0,170.7 360.4,230.9 256.0,291.1 151.6,230.9" fill="#e9cb8b" stroke="#8a6a39" stroke-width="1.2" stroke-linejoin="round"/><polygon points="360.4,162.6 256.0,222.9 256.0,273.1 360.4,212.8" fill="#b98f51" stroke="#8a6a39" stroke-width="1.2" stroke-linejoin="round"/><polygon points="151.6,162.6 256.0,222.9 256.0,273.1 151.6,212.8" fill="#d2ac6a" stroke="#8a6a39" stroke-width="1.2" stroke-linejoin="round"/><polygon points="256.0,102.4 360.4,162.6 256.0,222.9 151.6,162.6" fill="#e9cb8b" stroke="#8a6a39" stroke-width="1.2" stroke-linejoin="round"/></svg>